<?xml version="1.0" encoding="UTF-8"?>
<svg xmlns="http://www.w3.org/2000/svg" width="131.626" height="107.539" viewBox="0 0 131.626 107.539">
  <g id="Group_4300" data-name="Group 4300" transform="translate(-139 -12.392)">
    <path id="Path_4178" data-name="Path 4178" d="M98.887,64.117c-.066-.065-.131-.065-.262-.065l-2.291.2a.309.309,0,0,0-.327.328v52.493a.5.5,0,0,0,.131.262.241.241,0,0,0,.2.065h0l2.291-.2a.309.309,0,0,0,.327-.327V64.379C99.018,64.248,98.952,64.183,98.887,64.117Z" transform="translate(106.09 -36.348)" fill="#00bcdd"></path>
    <g id="Group_4182" data-name="Group 4182" transform="translate(158.457 35.942)">
      <path id="Path_4179" data-name="Path 4179" d="M73.41,99.241a13.2,13.2,0,0,1-4.058,9.687,15.4,15.4,0,0,1-10.014,4.581c-4.844.393-9.033-1.309-11.52-4.516a.479.479,0,0,1,.131-.72l5.629-4.123a.508.508,0,0,1,.655.131,5.437,5.437,0,0,0,5.236,2.16,6.814,6.814,0,0,0,6.415-6.611l.066-20.553a.447.447,0,0,1,.458-.458l6.545-.523a.506.506,0,0,1,.524.458Z" transform="translate(-47.704 -73.665)" fill="#fff"></path>
      <path id="Path_4180" data-name="Path 4180" d="M133.639,73.219a11.853,11.853,0,0,1,8.836,2.487,9.668,9.668,0,0,1,3.534,7.789,12.28,12.28,0,0,1-5.695,10.211.493.493,0,0,0-.131.655l6.611,10.668a.459.459,0,0,1-.392.72l-7.593.655a.6.6,0,0,1-.458-.2l-6.088-9.752a.4.4,0,0,0-.458-.2l-5.891.523a.447.447,0,0,0-.458.458v9.949a.448.448,0,0,1-.458.458l-6.808.458a.5.5,0,0,1-.523-.458l.065-32.661a.448.448,0,0,1,.458-.458ZM125.523,81.4v7.658a.465.465,0,0,0,.524.459l7.593-.655a4.662,4.662,0,0,0,4.319-4.712,3.74,3.74,0,0,0-4.254-3.927l-7.658.655C125.72,81.008,125.523,81.2,125.523,81.4Z" transform="translate(-54.458 -73.17)" fill="#fff"></path>
    </g>
    <path id="Path_4181" data-name="Path 4181" d="M155.83,48.739a6.237,6.237,0,0,0-4.188-1.636h-.524L31.8,57.772a6.186,6.186,0,0,0-5.629,6.153v84.565a6.136,6.136,0,0,0,6.153,6.153h.524l119.32-10.669a6.286,6.286,0,0,0,5.629-6.153V53.256A6.244,6.244,0,0,0,155.83,48.739ZM29.113,63.925a3.164,3.164,0,0,1,2.946-3.207L151.38,50.048h.262a3.317,3.317,0,0,1,2.16.851,3.17,3.17,0,0,1,1.047,2.356v63.7L29.113,128.231Z" transform="translate(112.832 -34.711)" fill="#fff"></path>
    <g id="Group_4184" data-name="Group 4184" transform="translate(157.862 90.229)">
      <path id="Path_4182" data-name="Path 4182" d="M47.045,153.8V142.6l2.144-.2,4.014,6.7,4-7.44,2.143-.2v11.2l-2.143.2v-7.134L53.907,151.9l-1.424.132-3.294-5.55V153.6Z" transform="translate(-47.045 -134.049)" fill="#040505"></path>
      <path id="Path_4183" data-name="Path 4183" d="M68.924,151.834l4.8-11.64,1.743-.161,4.8,10.752-2.255.209-.879-2.03-5.07.469-.88,2.193Zm5.678-8.667-1.711,4.221,3.407-.315Z" transform="translate(-49.157 -133.911)" fill="#040505"></path>
      <path id="Path_4184" data-name="Path 4184" d="M94.924,138.246a3.576,3.576,0,0,1,2.751.785,3.041,3.041,0,0,1,1.119,2.472,3.943,3.943,0,0,1-2.127,3.459l2.559,4.082-2.383.22-2.351-3.733-2.607.24v3.951l-2.143.2v-11.2Zm-3.039,2.264v3.279l3.039-.281a1.781,1.781,0,0,0,1.632-1.8,1.419,1.419,0,0,0-1.632-1.481Z" transform="translate(-51.167 -133.737)" fill="#040505"></path>
      <path id="Path_4185" data-name="Path 4185" d="M108.771,148.194V137l2.143-.2V148Z" transform="translate(-53.004 -133.599)" fill="#040505"></path>
      <path id="Path_4186" data-name="Path 4186" d="M120.277,147.054v-11.2l1.9-.175,5.9,6.972v-7.518l2.063-.191v11.2l-1.9.176-5.9-6.956v7.5Z" transform="translate(-54.115 -133.42)" fill="#040505"></path>
      <path id="Path_4187" data-name="Path 4187" d="M148.586,133.257v1.984l-6.109.565v2.559l5.23-.483v1.983l-5.23.483v2.687l6.19-.572v1.984l-8.333.77v-11.2Z" transform="translate(-56.051 -133.257)" fill="#040505"></path>
    </g>
  </g>
</svg>
